<?xml version="1.0" encoding="UTF-8"?>
<svg xmlns="http://www.w3.org/2000/svg" xmlns:xlink="http://www.w3.org/1999/xlink" width="540pt" height="200pt" viewBox="0 0 540 200">
<rect x="-54" y="-20" width="648" height="240" fill="rgb(55.561829%, 68.145752%, 23.388672%)" fill-opacity="1"/>
<path fill-rule="nonzero" fill="rgb(100%, 100%, 100%)" fill-opacity="1" d="M 290.277344 113.308594 L 276.035156 113.308594 C 269.925781 113.308594 264.957031 108.339844 264.957031 102.230469 L 264.957031 65.832031 C 264.957031 64.082031 266.375 62.667969 268.125 62.667969 C 269.871094 62.667969 271.289062 64.082031 271.289062 65.832031 L 271.289062 102.230469 C 271.289062 104.847656 273.417969 106.976562 276.035156 106.976562 L 290.277344 106.976562 C 292.027344 106.976562 293.441406 108.394531 293.441406 110.140625 C 293.441406 111.890625 292.027344 113.308594 290.277344 113.308594 "/>
<path fill-rule="nonzero" fill="rgb(100%, 100%, 100%)" fill-opacity="1" d="M 473.851562 113.308594 L 459.609375 113.308594 C 453.5 113.308594 448.53125 108.339844 448.53125 102.230469 L 448.53125 65.832031 C 448.53125 64.082031 449.949219 62.667969 451.695312 62.667969 C 453.445312 62.667969 454.859375 64.082031 454.859375 65.832031 L 454.859375 102.230469 C 454.859375 104.847656 456.988281 106.976562 459.609375 106.976562 L 473.851562 106.976562 C 475.597656 106.976562 477.015625 108.394531 477.015625 110.140625 C 477.015625 111.890625 475.597656 113.308594 473.851562 113.308594 "/>
<path fill-rule="nonzero" fill="rgb(87.611389%, 87.364197%, 86.685181%)" fill-opacity="1" d="M 394.726562 113.308594 C 392.976562 113.308594 391.558594 111.890625 391.558594 110.140625 L 391.558594 73.472656 L 375.734375 89.296875 L 375.734375 91.152344 C 375.734375 93.769531 377.863281 95.898438 380.480469 95.898438 L 383.648438 95.898438 C 385.394531 95.898438 386.8125 97.316406 386.8125 99.0625 C 386.8125 100.8125 385.394531 102.230469 383.648438 102.230469 L 380.480469 102.230469 C 374.375 102.230469 369.40625 97.261719 369.40625 91.152344 L 369.40625 87.988281 C 369.40625 87.148438 369.738281 86.34375 370.332031 85.75 L 392.488281 63.59375 C 393.390625 62.6875 394.753906 62.417969 395.9375 62.90625 C 397.117188 63.398438 397.890625 64.550781 397.890625 65.832031 L 397.890625 110.140625 C 397.890625 111.890625 396.472656 113.308594 394.726562 113.308594 "/>
<path fill-rule="nonzero" fill="rgb(100%, 100%, 100%)" fill-opacity="1" d="M 321.929688 113.308594 C 320.179688 113.308594 318.765625 111.890625 318.765625 110.140625 L 318.765625 95.898438 C 318.765625 93.28125 316.632812 91.152344 314.015625 91.152344 L 307.6875 91.152344 C 305.066406 91.152344 302.9375 93.28125 302.9375 95.898438 L 302.9375 102.230469 C 302.9375 104.847656 305.066406 106.976562 307.6875 106.976562 L 310.851562 106.976562 C 312.597656 106.976562 314.015625 108.394531 314.015625 110.140625 C 314.015625 111.890625 312.597656 113.308594 310.851562 113.308594 L 307.6875 113.308594 C 301.578125 113.308594 296.609375 108.339844 296.609375 102.230469 L 296.609375 95.898438 C 296.609375 89.792969 301.578125 84.824219 307.6875 84.824219 L 314.015625 84.824219 C 320.125 84.824219 325.09375 89.792969 325.09375 95.898438 L 325.09375 110.140625 C 325.09375 111.890625 323.675781 113.308594 321.929688 113.308594 "/>
<path fill-rule="nonzero" fill="rgb(100%, 100%, 100%)" fill-opacity="1" d="M 348.832031 113.308594 L 342.5 113.308594 C 336.394531 113.308594 331.421875 108.339844 331.421875 102.230469 L 331.421875 65.832031 C 331.421875 64.082031 332.839844 62.667969 334.589844 62.667969 C 336.335938 62.667969 337.753906 64.082031 337.753906 65.832031 L 337.753906 102.230469 C 337.753906 104.847656 339.882812 106.976562 342.5 106.976562 L 348.832031 106.976562 C 351.449219 106.976562 353.578125 104.847656 353.578125 102.230469 L 353.578125 95.898438 C 353.578125 93.28125 351.449219 91.152344 348.832031 91.152344 L 345.667969 91.152344 C 343.917969 91.152344 342.5 89.734375 342.5 87.988281 C 342.5 86.238281 343.917969 84.824219 345.667969 84.824219 L 348.832031 84.824219 C 354.941406 84.824219 359.910156 89.792969 359.910156 95.898438 L 359.910156 102.230469 C 359.910156 108.339844 354.941406 113.308594 348.832031 113.308594 "/>
<path fill-rule="nonzero" fill="rgb(100%, 100%, 100%)" fill-opacity="1" d="M 427.957031 113.308594 L 421.628906 113.308594 C 415.519531 113.308594 410.550781 108.339844 410.550781 102.230469 C 410.550781 100.480469 411.964844 99.0625 413.714844 99.0625 C 415.460938 99.0625 416.878906 100.480469 416.878906 102.230469 C 416.878906 104.847656 419.007812 106.976562 421.628906 106.976562 L 427.957031 106.976562 C 430.574219 106.976562 432.707031 104.847656 432.707031 102.230469 L 432.707031 95.898438 C 432.707031 93.28125 430.574219 91.152344 427.957031 91.152344 L 421.628906 91.152344 C 415.519531 91.152344 410.550781 86.183594 410.550781 80.074219 L 410.550781 73.746094 C 410.550781 67.636719 415.519531 62.667969 421.628906 62.667969 L 427.957031 62.667969 C 434.066406 62.667969 439.035156 67.636719 439.035156 73.746094 C 439.035156 75.492188 437.617188 76.910156 435.871094 76.910156 C 434.121094 76.910156 432.707031 75.492188 432.707031 73.746094 C 432.707031 71.125 430.574219 68.996094 427.957031 68.996094 L 421.628906 68.996094 C 419.007812 68.996094 416.878906 71.125 416.878906 73.746094 L 416.878906 80.074219 C 416.878906 82.691406 419.007812 84.824219 421.628906 84.824219 L 427.957031 84.824219 C 434.066406 84.824219 439.035156 89.792969 439.035156 95.898438 L 439.035156 102.230469 C 439.035156 108.339844 434.066406 113.308594 427.957031 113.308594 "/>
<path fill-rule="nonzero" fill="rgb(100%, 100%, 100%)" fill-opacity="1" d="M 497.589844 113.308594 L 491.257812 113.308594 C 485.152344 113.308594 480.179688 108.339844 480.179688 102.230469 L 480.179688 73.746094 C 480.179688 67.636719 485.152344 62.667969 491.257812 62.667969 L 497.589844 62.667969 C 503.695312 62.667969 508.667969 67.636719 508.667969 73.746094 C 508.667969 75.492188 507.25 76.910156 505.5 76.910156 C 503.753906 76.910156 502.335938 75.492188 502.335938 73.746094 C 502.335938 71.125 500.207031 68.996094 497.589844 68.996094 L 491.257812 68.996094 C 488.640625 68.996094 486.511719 71.125 486.511719 73.746094 L 486.511719 102.230469 C 486.511719 104.847656 488.640625 106.976562 491.257812 106.976562 L 497.589844 106.976562 C 500.207031 106.976562 502.335938 104.847656 502.335938 102.230469 C 502.335938 100.480469 503.753906 99.0625 505.5 99.0625 C 507.25 99.0625 508.667969 100.480469 508.667969 102.230469 C 508.667969 108.339844 503.695312 113.308594 497.589844 113.308594 "/>
<path fill-rule="nonzero" fill="rgb(87.611389%, 87.364197%, 86.685181%)" fill-opacity="1" d="M 273.097656 147.851562 L 267.390625 132.746094 L 267.390625 147.851562 L 264.722656 147.851562 L 264.722656 125.769531 L 267.203125 125.769531 L 272.878906 140.871094 L 272.847656 125.769531 L 275.515625 125.769531 L 275.515625 147.851562 Z M 273.097656 147.851562 "/>
<path fill-rule="nonzero" fill="rgb(87.611389%, 87.364197%, 86.685181%)" fill-opacity="1" d="M 285.007812 140.40625 L 283.582031 140.40625 C 282.804688 140.40625 282.277344 140.53125 281.78125 140.996094 C 281.316406 141.429688 281.039062 142.328125 281.039062 143.199219 C 281.039062 144.871094 281.6875 145.898438 282.992188 145.898438 C 284.203125 145.898438 285.007812 144.871094 285.007812 143.382812 Z M 285.132812 147.851562 L 285.132812 146.421875 C 284.882812 146.859375 284.511719 147.261719 284.203125 147.507812 C 283.703125 147.878906 283.175781 148.097656 282.308594 148.097656 C 281.128906 148.097656 280.292969 147.726562 279.550781 146.890625 C 278.929688 146.175781 278.527344 144.964844 278.527344 143.289062 C 278.527344 141.800781 279.023438 140.5 279.953125 139.664062 C 280.757812 138.949219 281.6875 138.578125 283.363281 138.578125 L 285.007812 138.578125 L 285.007812 136.035156 C 285.007812 134.542969 284.355469 133.738281 283.117188 133.738281 C 282.558594 133.738281 282.1875 133.957031 281.875 134.265625 C 281.441406 134.730469 281.285156 135.257812 281.285156 136.125 L 278.773438 136.125 C 278.773438 134.886719 279.050781 133.675781 280.015625 132.714844 C 280.726562 132 281.875 131.535156 283.117188 131.535156 C 284.417969 131.535156 285.503906 131.910156 286.25 132.652344 C 287.023438 133.460938 287.519531 134.542969 287.519531 136.1875 L 287.519531 147.851562 Z M 285.132812 147.851562 "/>
<path fill-rule="nonzero" fill="rgb(87.611389%, 87.364197%, 86.685181%)" fill-opacity="1" d="M 296.359375 133.957031 C 294.652344 133.957031 293.445312 135.074219 293.445312 136.902344 L 293.445312 147.851562 L 290.933594 147.851562 L 290.933594 131.785156 L 293.351562 131.785156 L 293.351562 133.492188 C 293.601562 133.058594 294.066406 132.621094 294.46875 132.34375 C 295.210938 131.816406 296.082031 131.535156 297.105469 131.535156 L 297.105469 133.957031 Z M 296.359375 133.957031 "/>
<path fill-rule="nonzero" fill="rgb(87.611389%, 87.364197%, 86.685181%)" fill-opacity="1" d="M 304.859375 140.40625 L 303.429688 140.40625 C 302.65625 140.40625 302.128906 140.53125 301.632812 140.996094 C 301.167969 141.429688 300.886719 142.328125 300.886719 143.199219 C 300.886719 144.871094 301.539062 145.898438 302.84375 145.898438 C 304.050781 145.898438 304.859375 144.871094 304.859375 143.382812 Z M 304.980469 147.851562 L 304.980469 146.421875 C 304.734375 146.859375 304.363281 147.261719 304.050781 147.507812 C 303.554688 147.878906 303.027344 148.097656 302.160156 148.097656 C 300.980469 148.097656 300.144531 147.726562 299.398438 146.890625 C 298.777344 146.175781 298.375 144.964844 298.375 143.289062 C 298.375 141.800781 298.871094 140.5 299.804688 139.664062 C 300.609375 138.949219 301.539062 138.578125 303.214844 138.578125 L 304.859375 138.578125 L 304.859375 136.035156 C 304.859375 134.542969 304.207031 133.738281 302.964844 133.738281 C 302.40625 133.738281 302.035156 133.957031 301.726562 134.265625 C 301.292969 134.730469 301.136719 135.257812 301.136719 136.125 L 298.625 136.125 C 298.625 134.886719 298.902344 133.675781 299.863281 132.714844 C 300.578125 132 301.726562 131.535156 302.964844 131.535156 C 304.269531 131.535156 305.355469 131.910156 306.097656 132.652344 C 306.875 133.460938 307.371094 134.542969 307.371094 136.1875 L 307.371094 147.851562 Z M 304.980469 147.851562 "/>
<path fill-rule="nonzero" fill="rgb(87.611389%, 87.364197%, 86.685181%)" fill-opacity="1" d="M 331.128906 147.851562 L 328.367188 147.851562 L 324.925781 130.078125 L 321.515625 147.851562 L 318.753906 147.851562 L 314.9375 125.769531 L 317.886719 125.769531 L 320.148438 143.539062 L 323.4375 125.769531 L 326.414062 125.769531 L 329.765625 143.539062 L 331.996094 125.769531 L 334.910156 125.769531 Z M 331.128906 147.851562 "/>
<path fill-rule="nonzero" fill="rgb(87.611389%, 87.364197%, 86.685181%)" fill-opacity="1" d="M 342.265625 134.453125 C 341.953125 134.019531 341.425781 133.769531 340.835938 133.769531 C 340.246094 133.769531 339.75 134.019531 339.441406 134.453125 C 338.851562 135.257812 338.789062 136.933594 338.789062 139.816406 C 338.789062 142.699219 338.851562 144.34375 339.441406 145.152344 C 339.75 145.585938 340.246094 145.835938 340.835938 145.835938 C 341.425781 145.835938 341.953125 145.585938 342.265625 145.152344 C 342.855469 144.34375 342.882812 142.699219 342.882812 139.816406 C 342.882812 136.933594 342.855469 135.257812 342.265625 134.453125 M 344.25 146.609375 C 343.441406 147.695312 342.265625 148.097656 340.835938 148.097656 C 339.410156 148.097656 338.261719 147.695312 337.457031 146.609375 C 336.464844 145.339844 336.277344 143.074219 336.277344 139.816406 C 336.277344 136.5625 336.464844 134.296875 337.457031 133.023438 C 338.261719 131.941406 339.410156 131.535156 340.835938 131.535156 C 342.265625 131.535156 343.441406 131.941406 344.25 133.023438 C 345.242188 134.296875 345.398438 136.5625 345.398438 139.816406 C 345.398438 143.074219 345.242188 145.339844 344.25 146.609375 "/>
<path fill-rule="nonzero" fill="rgb(87.611389%, 87.364197%, 86.685181%)" fill-opacity="1" d="M 361.058594 147.851562 L 361.058594 136.035156 C 361.058594 134.546875 360.222656 133.800781 359.167969 133.800781 C 358.113281 133.800781 357.277344 134.546875 357.277344 136.035156 L 357.277344 147.851562 L 354.765625 147.851562 L 354.765625 136.035156 C 354.765625 134.546875 353.894531 133.800781 352.839844 133.800781 C 351.785156 133.800781 350.949219 134.546875 350.949219 136.035156 L 350.949219 147.851562 L 348.4375 147.851562 L 348.4375 131.785156 L 350.855469 131.785156 L 350.855469 133.027344 C 351.074219 132.652344 351.507812 132.25 351.847656 132.03125 C 352.34375 131.722656 352.933594 131.535156 353.585938 131.535156 C 354.824219 131.535156 356.003906 132.21875 356.65625 133.210938 C 356.996094 132.777344 357.460938 132.3125 357.925781 132.03125 C 358.421875 131.722656 359.167969 131.535156 359.757812 131.535156 C 361.152344 131.535156 361.957031 131.941406 362.640625 132.714844 C 363.292969 133.429688 363.570312 134.296875 363.570312 136.035156 L 363.570312 147.851562 Z M 361.058594 147.851562 "/>
<path fill-rule="nonzero" fill="rgb(87.611389%, 87.364197%, 86.685181%)" fill-opacity="1" d="M 372.472656 134.453125 C 372.164062 134.082031 371.699219 133.769531 371.046875 133.769531 C 370.394531 133.769531 369.960938 134.082031 369.652344 134.453125 C 369.15625 135.042969 369 136.34375 369 138.515625 L 373.09375 138.515625 C 373.09375 136.34375 372.96875 135.042969 372.472656 134.453125 M 369 140.40625 C 369 142.949219 369.125 144.4375 369.683594 145.152344 C 369.992188 145.523438 370.425781 145.835938 371.078125 145.835938 C 371.667969 145.835938 372.132812 145.617188 372.503906 145.214844 C 372.847656 144.808594 373.0625 144.128906 373.0625 143.382812 L 375.546875 143.382812 C 375.515625 144.808594 375.140625 145.988281 374.273438 146.921875 C 373.496094 147.757812 372.351562 148.097656 371.078125 148.097656 C 369.683594 148.097656 368.753906 147.726562 367.914062 146.855469 C 366.675781 145.585938 366.488281 143.199219 366.488281 139.816406 C 366.488281 136.4375 366.644531 134.050781 367.882812 132.777344 C 368.722656 131.910156 369.777344 131.535156 371.046875 131.535156 C 372.351562 131.535156 373.375 131.878906 374.210938 132.777344 C 375.546875 134.234375 375.605469 136.964844 375.605469 140.40625 Z M 369 140.40625 "/>
<path fill-rule="nonzero" fill="rgb(87.611389%, 87.364197%, 86.685181%)" fill-opacity="1" d="M 384.882812 147.851562 L 384.882812 136.035156 C 384.882812 134.546875 384.011719 133.800781 382.957031 133.800781 C 381.902344 133.800781 381.066406 134.546875 381.066406 136.035156 L 381.066406 147.851562 L 378.554688 147.851562 L 378.554688 131.785156 L 380.972656 131.785156 L 380.972656 133.027344 C 381.191406 132.652344 381.625 132.25 381.964844 132.03125 C 382.460938 131.722656 383.050781 131.535156 383.703125 131.535156 C 384.910156 131.535156 385.75 131.941406 386.433594 132.714844 C 387.082031 133.429688 387.394531 134.296875 387.394531 136.035156 L 387.394531 147.851562 Z M 384.882812 147.851562 "/>
<path fill-rule="nonzero" fill="rgb(87.611389%, 87.364197%, 86.685181%)" fill-opacity="1" d="M 390.1875 130.886719 L 390.1875 125.769531 L 393.039062 125.769531 L 393.039062 128.777344 Z M 390.1875 130.886719 "/>
<path fill-rule="nonzero" fill="rgb(87.611389%, 87.364197%, 86.685181%)" fill-opacity="1" d="M 402.0625 146.828125 C 401.195312 147.726562 400.078125 148.097656 398.777344 148.097656 C 397.472656 148.097656 396.328125 147.664062 395.550781 146.859375 C 394.621094 145.898438 394.1875 144.78125 394.1875 143.320312 L 396.667969 143.320312 C 396.667969 144.160156 396.886719 144.78125 397.351562 145.277344 C 397.722656 145.648438 398.28125 145.832031 398.777344 145.832031 C 399.429688 145.832031 399.894531 145.648438 400.296875 145.246094 C 400.667969 144.871094 400.917969 144.285156 400.917969 143.632812 C 400.917969 143.074219 400.792969 142.609375 400.511719 142.175781 C 400.203125 141.710938 399.738281 141.367188 399.085938 141.027344 L 397.007812 139.972656 C 395.953125 139.445312 395.210938 138.792969 394.808594 138.113281 C 394.464844 137.523438 394.3125 136.839844 394.3125 136.003906 C 394.3125 134.605469 394.835938 133.550781 395.644531 132.746094 C 396.449219 131.941406 397.566406 131.535156 398.808594 131.535156 C 400.078125 131.535156 401.164062 131.910156 401.941406 132.683594 C 402.777344 133.492188 403.242188 134.636719 403.242188 136.21875 L 400.761719 136.21875 C 400.761719 135.289062 400.574219 134.730469 400.171875 134.296875 C 399.800781 133.894531 399.304688 133.738281 398.808594 133.738281 C 398.21875 133.738281 397.753906 133.925781 397.410156 134.265625 C 397.007812 134.667969 396.824219 135.226562 396.824219 135.816406 C 396.824219 136.28125 396.914062 136.65625 397.101562 136.996094 C 397.320312 137.367188 397.785156 137.738281 398.433594 138.050781 L 400.480469 139.074219 C 401.566406 139.601562 402.28125 140.160156 402.746094 140.902344 C 403.179688 141.554688 403.429688 142.453125 403.429688 143.476562 C 403.429688 144.902344 402.871094 146.019531 402.0625 146.828125 "/>
<path fill-rule="nonzero" fill="rgb(87.611389%, 87.364197%, 86.685181%)" fill-opacity="1" d="M 420.765625 146.640625 C 419.804688 147.601562 418.503906 148.097656 417.074219 148.097656 C 415.648438 148.097656 414.378906 147.601562 413.417969 146.640625 C 412.515625 145.742188 411.988281 144.4375 411.988281 142.824219 L 411.988281 125.769531 L 414.65625 125.769531 L 414.65625 142.980469 C 414.65625 144.71875 415.742188 145.710938 417.074219 145.710938 C 418.410156 145.710938 419.527344 144.71875 419.527344 142.980469 L 419.527344 125.769531 L 422.195312 125.769531 L 422.195312 142.824219 C 422.195312 144.4375 421.664062 145.742188 420.765625 146.640625 "/>
<path fill-rule="nonzero" fill="rgb(87.611389%, 87.364197%, 86.685181%)" fill-opacity="1" d="M 431.902344 147.851562 L 431.902344 136.035156 C 431.902344 134.546875 431.03125 133.800781 429.980469 133.800781 C 428.921875 133.800781 428.085938 134.546875 428.085938 136.035156 L 428.085938 147.851562 L 425.574219 147.851562 L 425.574219 131.785156 L 427.992188 131.785156 L 427.992188 133.027344 C 428.210938 132.652344 428.644531 132.25 428.984375 132.03125 C 429.484375 131.722656 430.070312 131.535156 430.722656 131.535156 C 431.933594 131.535156 432.769531 131.941406 433.453125 132.714844 C 434.105469 133.429688 434.414062 134.296875 434.414062 136.035156 L 434.414062 147.851562 Z M 431.902344 147.851562 "/>
<path fill-rule="nonzero" fill="rgb(87.611389%, 87.364197%, 86.685181%)" fill-opacity="1" d="M 437.824219 132.0625 L 440.339844 132.0625 L 440.339844 147.851562 L 437.824219 147.851562 Z M 437.609375 126.015625 L 440.554688 126.015625 L 440.554688 128.929688 L 437.609375 128.929688 Z M 437.609375 126.015625 "/>
<path fill-rule="nonzero" fill="rgb(87.611389%, 87.364197%, 86.685181%)" fill-opacity="1" d="M 448.773438 147.851562 L 446.109375 147.851562 L 442.230469 131.785156 L 444.992188 131.785156 L 447.441406 143.878906 L 449.859375 131.785156 L 452.621094 131.785156 Z M 448.773438 147.851562 "/>
<path fill-rule="nonzero" fill="rgb(87.611389%, 87.364197%, 86.685181%)" fill-opacity="1" d="M 459.941406 134.453125 C 459.628906 134.082031 459.164062 133.769531 458.511719 133.769531 C 457.863281 133.769531 457.429688 134.082031 457.117188 134.453125 C 456.621094 135.042969 456.46875 136.34375 456.46875 138.515625 L 460.558594 138.515625 C 460.558594 136.34375 460.4375 135.042969 459.941406 134.453125 M 456.46875 140.40625 C 456.46875 142.949219 456.589844 144.4375 457.148438 145.152344 C 457.460938 145.523438 457.894531 145.835938 458.546875 145.835938 C 459.132812 145.835938 459.597656 145.617188 459.972656 145.214844 C 460.3125 144.808594 460.53125 144.128906 460.53125 143.382812 L 463.011719 143.382812 C 462.980469 144.808594 462.605469 145.988281 461.738281 146.921875 C 460.964844 147.757812 459.816406 148.097656 458.546875 148.097656 C 457.148438 148.097656 456.21875 147.726562 455.382812 146.855469 C 454.140625 145.585938 453.957031 143.199219 453.957031 139.816406 C 453.957031 136.4375 454.109375 134.050781 455.351562 132.777344 C 456.1875 131.910156 457.242188 131.535156 458.511719 131.535156 C 459.816406 131.535156 460.839844 131.878906 461.675781 132.777344 C 463.011719 134.234375 463.074219 136.964844 463.074219 140.40625 Z M 456.46875 140.40625 "/>
<path fill-rule="nonzero" fill="rgb(87.611389%, 87.364197%, 86.685181%)" fill-opacity="1" d="M 471.449219 133.957031 C 469.742188 133.957031 468.53125 135.074219 468.53125 136.902344 L 468.53125 147.851562 L 466.019531 147.851562 L 466.019531 131.785156 L 468.441406 131.785156 L 468.441406 133.492188 C 468.6875 133.058594 469.152344 132.621094 469.554688 132.34375 C 470.300781 131.816406 471.167969 131.535156 472.191406 131.535156 L 472.191406 133.957031 Z M 471.449219 133.957031 "/>
<path fill-rule="nonzero" fill="rgb(87.611389%, 87.364197%, 86.685181%)" fill-opacity="1" d="M 481.527344 146.828125 C 480.660156 147.726562 479.542969 148.097656 478.238281 148.097656 C 476.9375 148.097656 475.789062 147.664062 475.015625 146.859375 C 474.082031 145.898438 473.648438 144.78125 473.648438 143.320312 L 476.128906 143.320312 C 476.128906 144.160156 476.347656 144.78125 476.8125 145.277344 C 477.183594 145.648438 477.742188 145.832031 478.238281 145.832031 C 478.890625 145.832031 479.355469 145.648438 479.757812 145.246094 C 480.132812 144.871094 480.378906 144.285156 480.378906 143.632812 C 480.378906 143.074219 480.253906 142.609375 479.976562 142.175781 C 479.667969 141.710938 479.199219 141.367188 478.550781 141.027344 L 476.472656 139.972656 C 475.417969 139.445312 474.671875 138.792969 474.269531 138.113281 C 473.929688 137.523438 473.773438 136.839844 473.773438 136.003906 C 473.773438 134.605469 474.300781 133.550781 475.105469 132.746094 C 475.914062 131.941406 477.03125 131.535156 478.269531 131.535156 C 479.542969 131.535156 480.628906 131.910156 481.402344 132.683594 C 482.242188 133.492188 482.707031 134.636719 482.707031 136.21875 L 480.222656 136.21875 C 480.222656 135.289062 480.039062 134.730469 479.632812 134.296875 C 479.261719 133.894531 478.765625 133.738281 478.269531 133.738281 C 477.679688 133.738281 477.214844 133.925781 476.875 134.265625 C 476.472656 134.667969 476.285156 135.226562 476.285156 135.816406 C 476.285156 136.28125 476.378906 136.65625 476.566406 136.996094 C 476.78125 137.367188 477.246094 137.738281 477.898438 138.050781 L 479.945312 139.074219 C 481.03125 139.601562 481.742188 140.160156 482.207031 140.902344 C 482.644531 141.554688 482.890625 142.453125 482.890625 143.476562 C 482.890625 144.902344 482.332031 146.019531 481.527344 146.828125 "/>
<path fill-rule="nonzero" fill="rgb(87.611389%, 87.364197%, 86.685181%)" fill-opacity="1" d="M 485.621094 132.0625 L 488.132812 132.0625 L 488.132812 147.851562 L 485.621094 147.851562 Z M 485.402344 126.015625 L 488.351562 126.015625 L 488.351562 128.929688 L 485.402344 128.929688 Z M 485.402344 126.015625 "/>
<path fill-rule="nonzero" fill="rgb(87.611389%, 87.364197%, 86.685181%)" fill-opacity="1" d="M 493.65625 146.855469 C 492.753906 146.113281 492.261719 144.933594 492.261719 143.261719 L 492.261719 133.738281 L 490.429688 133.738281 L 490.429688 131.785156 L 492.261719 131.785156 L 492.261719 127.378906 L 494.773438 127.378906 L 494.773438 131.785156 L 497.253906 131.785156 L 497.253906 133.738281 L 494.773438 133.738281 L 494.773438 143.167969 C 494.773438 144.875 495.671875 145.585938 497.347656 145.585938 L 497.347656 147.851562 C 495.917969 147.851562 494.679688 147.726562 493.65625 146.855469 "/>
<path fill-rule="nonzero" fill="rgb(87.611389%, 87.364197%, 86.685181%)" fill-opacity="1" d="M 503.953125 150.425781 C 503.238281 153.308594 501.285156 153.867188 498.617188 153.867188 L 498.617188 151.632812 C 500.167969 151.632812 501.128906 151.230469 501.5 149.773438 L 502 147.820312 L 498.089844 131.785156 L 500.851562 131.785156 L 503.300781 143.847656 L 505.71875 131.785156 L 508.480469 131.785156 Z M 503.953125 150.425781 "/>
<path fill-rule="nonzero" fill="rgb(100%, 100%, 100%)" fill-opacity="1" d="M 86.863281 73.332031 C 85.457031 78.320312 84.710938 83.527344 84.667969 88.84375 C 84.5625 101.675781 89.511719 113.789062 98.597656 122.949219 C 107.796875 132.226562 120.0625 137.332031 133.128906 137.332031 C 153.460938 137.332031 170 120.792969 170 100.460938 L 170 100 C 170 85.296875 158.039062 73.332031 143.332031 73.332031 Z M 68.664062 180 C 67.890625 180 67.113281 179.832031 66.386719 179.488281 C 64.523438 178.605469 63.332031 176.726562 63.332031 174.667969 L 63.332031 148 L 47.332031 148 C 38.511719 148 31.332031 140.824219 31.332031 132 L 31.332031 89.332031 C 31.332031 74.628906 43.296875 62.667969 58 62.667969 L 79.292969 62.667969 C 82.769531 54.324219 87.894531 46.671875 94.496094 40.117188 C 107.570312 27.144531 124.914062 20 143.332031 20 C 187.445312 20 223.332031 55.886719 223.332031 100 C 223.332031 132.9375 205.421875 163.335938 176.585938 179.332031 C 175.164062 180.121094 173.460938 180.214844 171.957031 179.59375 C 170.457031 178.972656 169.320312 177.699219 168.871094 176.136719 C 166.855469 169.097656 163.875 162.371094 160.015625 156.140625 C 158.464844 153.636719 159.238281 150.351562 161.742188 148.800781 C 164.246094 147.25 167.53125 148.019531 169.085938 150.523438 C 172.242188 155.625 174.882812 161.015625 176.964844 166.621094 C 199.140625 151.855469 212.667969 126.886719 212.667969 100 C 212.667969 61.769531 181.5625 30.667969 143.332031 30.667969 C 127.746094 30.667969 113.074219 36.710938 102.011719 47.691406 C 97.523438 52.140625 93.84375 57.195312 91.046875 62.667969 L 143.332031 62.667969 C 163.917969 62.667969 180.667969 79.414062 180.667969 100 L 180.667969 100.460938 C 180.667969 126.675781 159.339844 148 133.128906 148 C 117.195312 148 102.242188 141.769531 91.023438 130.460938 C 79.917969 119.265625 73.875 104.457031 74.003906 88.757812 C 74.046875 83.5 74.671875 78.332031 75.847656 73.332031 L 58 73.332031 C 49.179688 73.332031 42 80.511719 42 89.332031 L 42 132 C 42 134.941406 44.394531 137.332031 47.332031 137.332031 L 63.332031 137.332031 C 69.214844 137.332031 74 142.117188 74 148 L 74 163.402344 L 92.957031 147.867188 C 95.234375 146 98.597656 146.332031 100.460938 148.609375 C 102.332031 150.890625 101.996094 154.25 99.71875 156.117188 L 72.046875 178.792969 C 71.074219 179.589844 69.875 180 68.664062 180 "/>
</svg>
